<svg xmlns="http://www.w3.org/2000/svg" viewBox="0 0 200 200"><rect x="5" y="5" width="190" height="190" rx="45" fill="#fff5f7"/><rect x="20" y="20" width="75" height="75" rx="10" fill="#6aaa64"/><text x="57.5" y="75" font-family="Arial, sans-serif" font-weight="bold" font-size="50" fill="#fff" text-anchor="middle">M</text><rect x="105" y="20" width="75" height="75" rx="10" fill="#c9b458"/><text x="142.5" y="75" font-family="Arial, sans-serif" font-weight="bold" font-size="50" fill="#fff" text-anchor="middle">A</text><rect x="20" y="105" width="75" height="75" rx="10" fill="gray"/><text x="57.5" y="160" font-family="Arial, sans-serif" font-weight="bold" font-size="50" fill="#fff" text-anchor="middle">M</text><rect x="105" y="105" width="75" height="75" rx="10" fill="#6aaa64"/><text x="142.5" y="160" font-family="Arial, sans-serif" font-weight="bold" font-size="50" fill="#fff" text-anchor="middle">I</text><path d="M165 118c0-4-4-7-7-7-4 0-7 3-7 7 0 7 14 14 14 14s14-7 14-14c0-4-3-7-7-7-3 0-7 3-7 7" fill="#ffeb3b"/></svg>
